HIERARCHY
ROOT Pelvis
{
	OFFSET 0.000000 0.000000 0.000000
	CHANNELS 6 Xposition Yposition Zposition Xrotation Yrotation Zrotation
	JOINT LeftUpLeg_virtual
	{
		OFFSET 0.000000 0.000000 0.000000
		CHANNELS 3 Xrotation Yrotation Zrotation
		JOINT LeftUpLeg
		{
			OFFSET 18.735201 -5.666702 -4.541200
			CHANNELS 3 Xrotation Yrotation Zrotation
			JOINT LeftLeg
			{
				OFFSET -0.021200 -31.938179 0.493100
				CHANNELS 3 Xrotation Yrotation Zrotation
				JOINT LeftFoot
				{
					OFFSET 0.021200 -31.938179 -4.336299
					CHANNELS 3 Xrotation Yrotation Zrotation
					JOINT LeftToeBase
					{
						OFFSET 0.943001 -26.722000 15.023500
						CHANNELS 3 Xrotation Yrotation Zrotation
						End Site
						{
							OFFSET 0 0 0
						}
					}
				}
			}
		}
	}
	JOINT RightUpLeg_virtual
	{
		OFFSET 0.000000 0.000000 0.000000
		CHANNELS 3 Xrotation Yrotation Zrotation
		JOINT RightUpLeg
		{
			OFFSET -18.735201 -5.666702 -4.541200
			CHANNELS 3 Xrotation Yrotation Zrotation
			JOINT RightLeg
			{
				OFFSET 0.018946 -31.938133 0.493100
				CHANNELS 3 Xrotation Yrotation Zrotation
				JOINT RightFoot
				{
					OFFSET -0.018946 -31.938126 -4.336299
					CHANNELS 3 Xrotation Yrotation Zrotation
					JOINT RightToeBase
					{
						OFFSET -0.943001 -26.722004 15.023500
						CHANNELS 3 Xrotation Yrotation Zrotation
						End Site
						{
							OFFSET 0 0 0
						}
					}
				}
			}
		}
	}
	JOINT Hips_virtual
	{
		OFFSET 0.000000 0.000000 0.000000
		CHANNELS 3 Xrotation Yrotation Zrotation
		JOINT Hips
		{
			OFFSET -0.000000 -0.000000 -0.000000
			CHANNELS 3 Xrotation Yrotation Zrotation
			JOINT Spine
			{
				OFFSET 0.000000 10.199997 -0.299500
				CHANNELS 3 Xrotation Yrotation Zrotation
				JOINT Spine1
				{
					OFFSET 0.000000 11.900002 -1.516600
					CHANNELS 3 Xrotation Yrotation Zrotation
					JOINT Spine2
					{
						OFFSET 0.000000 13.600006 -2.842500
						CHANNELS 3 Xrotation Yrotation Zrotation
						JOINT Neck_virtual
						{
							OFFSET 0.000000 0.000000 0.000000
							CHANNELS 3 Xrotation Yrotation Zrotation
							JOINT Neck
							{
								OFFSET 0.000000 9.624100 -2.890100
								CHANNELS 3 Xrotation Yrotation Zrotation
								JOINT Head
								{
									OFFSET 0.000000 14.068802 -1.351900
									CHANNELS 3 Xrotation Yrotation Zrotation
									End Site
									{
										OFFSET 0 0 0
									}
								}
							}
						}
						JOINT LeftShoulder_virtual
						{
							OFFSET 0.000000 0.000000 0.000000
							CHANNELS 3 Xrotation Yrotation Zrotation
							JOINT LeftShoulder
							{
								OFFSET 15.263000 10.923401 -0.547700
								CHANNELS 3 Xrotation Yrotation Zrotation
								JOINT LeftArm
								{
									OFFSET 25.438599 -2.830597 -13.032500
									CHANNELS 3 Xrotation Yrotation Zrotation
									JOINT LeftForeArm
									{
										OFFSET 29.960503 0.000000 0.000000
										CHANNELS 3 Xrotation Yrotation Zrotation
										JOINT LeftHand
										{
											OFFSET 27.849251 0.000000 0.000000
											CHANNELS 3 Xrotation Yrotation Zrotation
											End Site
											{
												OFFSET 0 0 0
											}
										}
									}
								}
							}
						}
						JOINT RightShoulder_virtual
						{
							OFFSET 0.000000 0.000000 0.000000
							CHANNELS 3 Xrotation Yrotation Zrotation
							JOINT RightShoulder
							{
								OFFSET -15.263000 10.923401 -0.547700
								CHANNELS 3 Xrotation Yrotation Zrotation
								JOINT RightArm
								{
									OFFSET -25.438599 -2.830597 -13.032500
									CHANNELS 3 Xrotation Yrotation Zrotation
									JOINT RightForeArm
									{
										OFFSET -29.960503 0.000000 0.000000
										CHANNELS 3 Xrotation Yrotation Zrotation
										JOINT RightHand
										{
											OFFSET -27.849251 0.000000 0.000000
											CHANNELS 3 Xrotation Yrotation Zrotation
											End Site
											{
												OFFSET 0 0 0
											}
										}
									}
								}
							}
						}
					}
				}
			}
		}
	}
}
MOTION
Frames: 10
Frame Time: 0.03333333
-0.062843 109.565323 2.766159 0.000000 0.000000 0.000000 -90.670030 -2.031599 1.709774 -10.706878 17.932194 19.795948 12.562968 0.407844 1.440162 21.708460 29.941207 -28.451344 0.000000 0.000000 0.000000 -90.670030 -2.031599 1.709774 -14.234663 -16.526836 -21.780722 14.524783 -4.818815 -4.597038 32.009395 -29.973329 33.483705 0.000000 0.000000 0.000000 -90.670030 -2.031599 1.709774 0.000000 0.000000 0.000000 0.643581 -0.165987 -0.788480 0.762693 0.011070 -0.441134 0.000000 0.000000 0.000000 0.789608 0.004150 -0.423981 -1.923147 1.590890 -3.359952 0.000000 0.000000 0.000000 0.789608 0.004150 -0.423981 0.831446 -5.985261 -3.778118 44.068514 -39.822725 -34.595991 -0.000137 -83.311355 -0.000124 0.000000 0.000000 0.000000 0.789608 0.004150 -0.423981 0.517165 4.195566 2.972748 -4.397020 2.514827 83.955148 -179.999978 50.609810 179.999978 0.000000 0.000000 0.000000 
-0.055675 109.564621 2.766121 0.000000 0.000000 0.000000 -90.684524 -2.022948 1.706152 -10.711701 17.934159 19.798727 12.580424 0.385255 1.440317 21.695150 29.938901 -28.437592 0.000000 0.000000 0.000000 -90.684524 -2.022948 1.706152 -14.204292 -16.531119 -21.781762 14.510692 -4.829199 -4.597166 32.011085 -29.972086 33.500500 0.000000 0.000000 0.000000 -90.684524 -2.022948 1.706152 0.000000 0.000000 0.000000 0.644229 -0.166559 -0.776472 0.775539 0.010199 -0.441929 0.000000 0.000000 0.000000 0.799325 0.002338 -0.423853 -1.934868 1.614334 -3.345712 0.000000 0.000000 0.000000 0.799325 0.002338 -0.423853 0.821171 -6.021021 -3.761135 44.049481 -39.813005 -34.639048 -0.000085 -83.307162 -0.000052 0.000000 0.000000 0.000000 0.799325 0.002338 -0.423853 0.506621 4.242361 2.977802 -4.368373 2.476191 83.932827 -179.999964 50.586474 179.999950 0.000000 0.000000 0.000000 
-0.046347 109.563171 2.769615 0.000000 0.000000 0.000000 -90.699154 -2.014016 1.701483 -10.714023 17.934438 19.804835 12.594747 0.347421 1.440662 21.698941 29.928666 -28.445441 0.000000 0.000000 0.000000 -90.699154 -2.014016 1.701483 -14.186954 -16.530379 -21.786143 14.509671 -4.826265 -4.597339 32.023687 -29.969743 33.515151 0.000000 0.000000 0.000000 -90.699154 -2.014016 1.701483 0.000000 0.000000 0.000000 0.644665 -0.166895 -0.760468 0.790635 0.010041 -0.442317 0.000000 0.000000 0.000000 0.802111 0.001533 -0.423876 -1.968844 1.642457 -3.331671 0.000000 0.000000 0.000000 0.802111 0.001533 -0.423876 0.814088 -6.042071 -3.750280 44.046336 -39.816212 -34.649259 0.000096 -83.299430 0.000122 0.000000 0.000000 0.000000 0.802111 0.001533 -0.423876 0.495734 4.266200 2.985393 -4.348705 2.459902 83.910288 -179.999978 50.573507 179.999978 0.000000 0.000000 0.000000 
-0.037426 109.561844 2.772972 0.000000 0.000000 0.000000 -90.707931 -2.005005 1.697075 -10.730406 17.932404 19.811889 12.628021 0.348913 1.440901 21.682820 29.913298 -28.432358 0.000000 0.000000 0.000000 -90.707931 -2.005005 1.697075 -14.168695 -16.531537 -21.787713 14.504646 -4.845952 -4.597439 32.029667 -29.967253 33.525386 0.000000 0.000000 0.000000 -90.707931 -2.005005 1.697075 0.000000 0.000000 0.000000 0.644970 -0.166986 -0.743079 0.799679 0.010187 -0.442380 0.000000 0.000000 0.000000 0.802065 0.001557 -0.424020 -2.017844 1.672228 -3.320169 0.000000 0.000000 0.000000 0.802065 0.001557 -0.424020 0.812162 -6.027388 -3.751180 44.073063 -39.845565 -34.601984 -0.000075 -83.285599 -0.000088 0.000000 0.000000 0.000000 0.802065 0.001557 -0.424020 0.487832 4.245594 2.996222 -4.351201 2.486578 83.885317 -179.999978 50.580430 179.999991 0.000000 0.000000 0.000000 
-0.028610 109.560928 2.779488 0.000000 0.000000 0.000000 -90.710574 -1.996697 1.692447 -10.753713 17.926887 19.820512 12.652974 0.313146 1.441322 21.684792 29.895977 -28.435083 0.000000 0.000000 0.000000 -90.710574 -1.996697 1.692447 -14.172695 -16.525597 -21.793529 14.507621 -4.826289 -4.597823 32.055604 -29.964446 33.536143 0.000000 0.000000 0.000000 -90.710574 -1.996697 1.692447 0.000000 0.000000 0.000000 0.645621 -0.166783 -0.725186 0.802787 0.010735 -0.442201 0.000000 0.000000 0.000000 0.800753 0.002236 -0.424260 -2.074768 1.700205 -3.311760 0.000000 0.000000 0.000000 0.800753 0.002236 -0.424260 0.812633 -5.985355 -3.762703 44.120604 -39.891662 -34.509824 -0.000071 -83.268298 -0.000069 0.000000 0.000000 0.000000 0.800753 0.002236 -0.424260 0.487246 4.189668 3.003525 -4.371357 2.547164 83.864170 -179.999950 50.604271 179.999964 0.000000 0.000000 0.000000 
-0.021222 109.559753 2.785530 0.000000 0.000000 0.000000 -90.708491 -1.989150 1.688287 -10.776198 17.915701 19.827296 12.681428 0.315176 1.441592 21.677864 29.879731 -28.434861 0.000000 0.000000 0.000000 -90.708491 -1.989150 1.688287 -14.172798 -16.522077 -21.795272 14.509475 -4.844259 -4.597968 32.064934 -29.962551 33.544268 0.000000 0.000000 0.000000 -90.708491 -1.989150 1.688287 0.000000 0.000000 0.000000 0.646404 -0.166338 -0.708889 0.804670 0.013084 -0.441861 0.000000 0.000000 0.000000 0.799668 0.004204 -0.424568 -2.132446 1.723059 -3.307631 0.000000 0.000000 0.000000 0.799668 0.004204 -0.424568 0.814195 -5.934298 -3.781539 44.176113 -39.940392 -34.398848 0.000201 -83.251222 0.000229 0.000000 0.000000 0.000000 0.799668 0.004204 -0.424568 0.489580 4.116862 3.004965 -4.399774 2.622893 83.851849 179.999978 50.637154 -179.999978 0.000000 0.000000 0.000000 
-0.016323 109.558441 2.791245 0.000000 0.000000 0.000000 -90.703867 -1.985578 1.684860 -10.801709 17.900164 19.835467 12.707774 0.303047 1.441856 21.676302 29.866662 -28.433676 0.000000 0.000000 0.000000 -90.703867 -1.985578 1.684860 -14.174412 -16.514598 -21.796063 14.509688 -4.862503 -4.598129 32.077690 -29.958617 33.551102 0.000000 0.000000 0.000000 -90.703867 -1.985578 1.684860 0.000000 0.000000 0.000000 0.647306 -0.165617 -0.695830 0.806101 0.016036 -0.440932 0.000000 0.000000 0.000000 0.798757 0.007634 -0.424918 -2.183714 1.737309 -3.307689 0.000000 0.000000 0.000000 0.798757 0.007634 -0.424918 0.815805 -5.888977 -3.804738 44.230645 -39.979932 -34.290511 -0.000102 -83.238354 -0.000115 0.000000 0.000000 0.000000 0.798757 0.007634 -0.424918 0.493288 4.044708 3.003709 -4.428503 2.695902 83.850107 180.000005 50.670540 180.000005 0.000000 0.000000 0.000000 
-0.015337 109.556908 2.796890 0.000000 0.000000 0.000000 -90.697481 -1.985187 1.682650 -10.819118 17.884671 19.837769 12.731451 0.336408 1.441828 21.665773 29.855201 -28.433876 0.000000 0.000000 0.000000 -90.697481 -1.985187 1.682650 -14.175584 -16.504623 -21.792659 14.496998 -4.873766 -4.598462 32.100100 -29.949276 33.562071 0.000000 0.000000 0.000000 -90.697481 -1.985187 1.682650 0.000000 0.000000 0.000000 0.648065 -0.164535 -0.691779 0.807455 0.019444 -0.436891 0.000000 0.000000 0.000000 0.797154 0.011458 -0.425281 -2.221395 1.740363 -3.312200 0.000000 0.000000 0.000000 0.797154 0.011458 -0.425281 0.817432 -5.846121 -3.829799 44.283432 -40.014568 -34.183065 -0.000025 -83.229256 -0.000002 0.000000 0.000000 0.000000 0.797154 0.011458 -0.425281 0.497003 3.989113 3.000593 -4.450191 2.750801 83.856193 179.999950 50.697093 -179.999950 0.000000 0.000000 0.000000 
-0.016439 109.554977 2.801186 0.000000 0.000000 0.000000 -90.689414 -1.986472 1.681905 -10.835327 17.866078 19.839318 12.747238 0.342311 1.441721 21.663311 29.853022 -28.433533 0.000000 0.000000 0.000000 -90.689414 -1.986472 1.681905 -14.175934 -16.494222 -21.788604 14.476127 -4.884644 -4.598846 32.126474 -29.937460 33.574819 0.000000 0.000000 0.000000 -90.689414 -1.986472 1.681905 0.000000 0.000000 0.000000 0.648611 -0.163149 -0.690862 0.808788 0.023496 -0.432283 0.000000 0.000000 0.000000 0.795271 0.016170 -0.425631 -2.237566 1.735519 -3.319935 0.000000 0.000000 0.000000 0.795271 0.016170 -0.425631 0.819754 -5.807106 -3.854527 44.331596 -40.044040 -34.081223 0.000252 -83.226128 0.000233 0.000000 0.000000 0.000000 0.795271 0.016170 -0.425631 0.500427 3.950225 2.994658 -4.465324 2.788655 83.862838 179.999978 50.716477 -179.999978 0.000000 0.000000 0.000000 
-0.018924 109.552261 2.802292 0.000000 0.000000 0.000000 -90.680795 -1.989513 1.682630 -10.842863 17.843634 19.838804 12.754221 0.372781 1.441478 21.675798 29.854081 -28.433961 0.000000 0.000000 0.000000 -90.680795 -1.989513 1.682630 -14.168963 -16.483823 -21.782979 14.459145 -4.920977 -4.599097 32.137106 -29.929889 33.585454 0.000000 0.000000 0.000000 -90.680795 -1.989513 1.682630 0.000000 0.000000 0.000000 0.648954 -0.160582 -0.692396 0.810061 0.028651 -0.429555 0.000000 0.000000 0.000000 0.793491 0.021821 -0.425939 -2.234252 1.724756 -3.329474 0.000000 0.000000 0.000000 0.793491 0.021821 -0.425939 0.826534 -5.773343 -3.877390 44.372573 -40.069489 -33.988240 0.000104 -83.224653 0.000096 0.000000 0.000000 0.000000 0.793491 0.021821 -0.425939 0.505131 3.924304 2.986825 -4.477485 2.813365 83.866383 -179.999991 50.730007 -179.999991 0.000000 0.000000 0.000000 
